<?xml version="1.0" encoding="UTF-8"?>
<svg id="Capa_1" xmlns="http://www.w3.org/2000/svg" version="1.1" viewBox="0 0 2094.8 981.4">
  <!-- Generator: Adobe Illustrator 30.0.0, SVG Export Plug-In . SVG Version: 2.1.1 Build 123)  -->
  <defs>
    <style>
      .st0 {
        fill: #cfccc6;
      }
    </style>
  </defs>
  <g>
    <path class="st0" d="M45.5,951.3c-13.8-8.3-24.7-19.4-33-33.3-8.3-13.9-12.5-29.4-12.5-46.3s4.2-32.5,12.5-46.5c8.3-13.9,19.2-25.2,33-33.5,13.6-8.3,28.6-12.4,44.9-12.4s22.2,2,32.4,6.1c10.2,4.2,19.4,10,27.5,17.4l-10.8,10.8c-12.7-15.8-29.1-23.6-49.1-23.6s-24.9,3.6-35,10.6c-10.2,7-18,16.7-23.8,28.9-5.8,12.4-8.6,26.3-8.6,42.1s2.8,29.6,8.6,41.9c5.6,12.4,13.4,21.9,23.6,28.9s21.9,10.6,35.2,10.6c20.2,0,36.6-7.8,49.1-23.6l10.8,10.8c-8.1,7.3-17.4,13.1-27.5,17.2-10.2,4.2-21,6.3-32.4,6.3-16.3,0-31.3-4.2-44.9-12.5h0Z"/>
    <path class="st0" d="M248.9,783.3h14.4l79.6,177.4h-173.8l79.8-177.4h0ZM248.9,806.8l-64.3,143.3h130.8l-66.5-143.3h0Z"/>
    <path class="st0" d="M504.4,960.7l-130.5-148v148h-10.6v-177.4h18l121.4,136.6v-136.6h10.6v177.4h-8.9Z"/>
    <path class="st0" d="M600.6,960.7v-166.8h-63.8v-10.6h148.9v10.6h-63.8v166.8h-21.3Z"/>
    <path class="st0" d="M732.8,951.3c-13.8-8.3-24.7-19.4-33-33.3-8.3-13.9-12.5-29.2-12.5-46.3s4.2-32.5,12.5-46.5c8.3-13.9,19.2-25.2,33-33.5,13.6-8.3,28.6-12.4,44.9-12.4s31.4,4.1,45.2,12.4c13.6,8.3,24.7,19.5,33,33.5,8.3,13.9,12.4,29.4,12.4,46.5s-4.1,32.4-12.4,46.3-19.4,25-33,33.3c-13.8,8.3-28.8,12.5-45.2,12.5s-31.3-4.2-44.9-12.5ZM813,942.7c10.2-7,18-16.7,23.6-29.1s8.5-26.3,8.5-41.9c0-23.5-6.1-42.9-18.5-58-12.4-15.2-28.8-23-49-23.5-13.3,0-24.9,3.4-35,10.5s-18,16.7-23.8,29.1-8.6,26.3-8.6,41.9,2.8,29.6,8.6,41.9c5.6,12.4,13.5,22.1,23.6,29.1s21.9,10.6,35.2,10.6,25.2-3.6,35.3-10.6h.1Z"/>
    <path class="st0" d="M1107.4,981.4l-19.9-19.9c-6.3,1.4-12.7,2-19.4,2-16.3,0-31.3-4.2-44.9-12.5-13.8-8.3-24.7-19.4-33-33.3s-12.5-29.2-12.5-46.3,4.2-32.5,12.5-46.5c8.3-13.9,19.2-25.2,33-33.5,13.6-8.3,28.6-12.4,44.9-12.4s31.4,4.1,45.2,12.4c13.6,8.3,24.7,19.5,33,33.5,8.3,13.9,12.4,29.4,12.4,46.5s-2.7,25.8-7.8,37.4c-5.2,11.6-12.4,21.6-21.3,30-9.1,8.6-19.4,15-31.1,19.4l23.2,23.2h-14.3ZM1078.5,952.3l-34.6-34.7h14.1l31.8,31.8c14.2-5.2,25.3-14.7,33.6-28.6,8.1-13.9,12.2-30.3,12.2-49.3s-6.1-42.9-18.5-58c-12.4-15.2-28.8-23-49-23.5-13.3,0-24.9,3.4-35,10.5-10.2,7-18,16.7-23.8,29.1-5.8,12.4-8.6,26.3-8.6,41.9s2.8,29.6,8.6,41.9c5.6,12.4,13.5,22.1,23.6,29.1,10.2,7,21.9,10.6,35.2,10.6s7-.3,10.3-.8h0Z"/>
    <path class="st0" d="M1202.1,946c-13.3-11.7-19.9-28.3-19.9-49.6v-113.6h21.3v113.6c0,12.2,2.3,22.5,7.2,31s11.6,14.9,20.2,19.2c8.6,4.4,18.8,6.6,30.2,6.6s14.1-1.2,21.1-3.8,13.4-6.1,19.2-11c5.8-4.8,10.3-10.8,13.9-17.8,3.4-7,5.2-15,5.2-24.2v-113.6h10.8v113.6c0,13.8-3.1,25.7-9.5,35.7-6.4,10.2-15.3,18-26.8,23.5s-24.7,8.3-39.6,8.3c-22.4,0-40.1-5.9-53.3-17.8h0Z"/>
    <path class="st0" d="M1354.8,960.7v-177.4h127.7v10.6h-106.4v72.7h95.7v10.6h-95.7v72.7h110v10.6h-131.2v.2Z"/>
    <path class="st0" d="M1615.4,946c-13.3-11.7-19.9-28.3-19.9-49.6v-113.6h21.3v113.6c0,12.2,2.3,22.5,7.2,31s11.6,14.9,20.2,19.2c8.6,4.4,18.8,6.6,30.2,6.6s14.1-1.2,21.1-3.8,13.4-6.1,19.2-11c5.8-4.8,10.3-10.8,13.9-17.8,3.4-7,5.2-15,5.2-24.2v-113.6h10.8v113.6c0,13.8-3.1,25.7-9.5,35.7-6.4,10.2-15.3,18-26.8,23.5s-24.7,8.3-39.6,8.3c-22.4,0-40.1-5.9-53.3-17.8h0Z"/>
    <path class="st0" d="M1909.2,960.7l-130.5-148v148h-10.6v-177.4h18l121.4,136.6v-136.6h10.6v177.4h-8.9Z"/>
    <path class="st0" d="M1941.6,960.7v-177.4h127.6v10.6h-106.4v72.7h95.7v10.6h-95.7v72.7h110v10.6h-131.2v.2Z"/>
  </g>
  <g>
    <g>
      <g>
        <path class="st0" d="M723,427.5c-2.1,0-4.1-.9-5.4-2.7-4.6-6.2-6.9-13-6.9-20.8,0-19.8,14.6-29.5,27.5-38.1,13.3-8.9,21.4-15.1,21.4-26.9s-8.1-18-21.4-26.9c-12.9-8.5-27.5-18.2-27.5-38.1s3.4-17.5,10.3-24.7c2.2-2.3,5.7-2.7,8.4-1.1l130.2,79.4c3.1,1.9,4.9,5.2,4.9,8.8s-1.8,6.9-4.9,8.8l-133.1,81.2c-1.1.7-2.3,1-3.5,1h0ZM727.4,262.9c-2.2,3.5-3.2,7.1-3.2,11.3,0,11.8,8.1,18,21.4,26.9,12.9,8.5,27.5,18.2,27.5,38.1s-14.6,29.5-27.5,38.1c-13.3,8.9-21.4,15.1-21.4,26.9s.4,5.1,1.3,7.4l122.8-74.9-120.8-73.7h0Z"/>
        <path class="st0" d="M860.7,469.2c-1.6,0-3.2-.4-4.7-1.2-3-1.7-4.9-4.9-4.9-8.4v-244.3c0-3.5,1.9-6.7,4.9-8.4s6.8-1.6,9.7.2l69.1,42.1c1.7,1.1,2.9,2.9,3.2,4.9s-.4,4-1.8,5.5c-4.5,4.8-6.6,9.5-6.6,15.5,0,11.8,8.1,18,21.4,26.9,12.9,8.5,27.5,18.2,27.5,38.1s-14.6,29.5-27.5,38.1c-13.3,8.9-21.4,15.1-21.4,26.9s1.3,8.8,4.2,12.7c1.1,1.5,1.6,3.4,1.2,5.3-.4,1.9-1.5,3.5-3.1,4.5l-66.2,40.4c-1.5.9-3.3,1.4-5,1.4h0v-.2ZM864.5,222.1v230.7l54.7-33.4c-2.1-4.5-3.1-9.2-3.1-14.5,0-19.8,14.6-29.5,27.5-38.1,13.3-8.9,21.4-15.1,21.4-26.9s-8.1-18-21.4-26.9c-12.9-8.5-27.5-18.2-27.5-38.1s1.7-12.8,5.2-18.3l-56.8-34.7h0v.2Z"/>
      </g>
      <g>
        <path class="st0" d="M1114.8,674.9c-19.8,0-29.5-14.6-38.1-27.5-8.9-13.3-15.1-21.4-26.9-21.4s-18,8.1-26.9,21.4c-8.5,12.9-18.2,27.5-38.1,27.5s-17.5-3.4-24.7-10.3c-2.3-2.2-2.7-5.7-1.1-8.4l79.4-130.2c1.9-3.1,5.2-4.9,8.8-4.9s6.9,1.8,8.8,4.9l81.2,133.1c1.8,3,1.1,6.8-1.7,8.9-6.2,4.6-13,6.9-20.8,6.9h0ZM1049.8,612.6c19.8,0,29.5,14.6,38.1,27.5,8.9,13.3,15.1,21.4,26.9,21.4s5.1-.4,7.4-1.3l-74.9-122.8-73.7,120.8c3.5,2.2,7.1,3.2,11.3,3.2,11.8,0,18-8.1,26.9-21.4,8.5-12.9,18.2-27.5,38.1-27.5h0Z"/>
        <path class="st0" d="M1170.3,534.5h-244.3c-3.5,0-6.7-1.9-8.4-4.9s-1.6-6.8.2-9.7l42.1-69.1c1.1-1.7,2.8-2.9,4.9-3.2,2-.3,4,.4,5.5,1.8,4.8,4.5,9.5,6.6,15.5,6.6,11.8,0,18-8.1,26.9-21.4,8.5-12.9,18.2-27.5,38.1-27.5s29.5,14.6,38.1,27.5c8.9,13.3,15.1,21.4,26.9,21.4s8.8-1.3,12.7-4.2c1.5-1.1,3.4-1.6,5.3-1.2s3.5,1.5,4.5,3.1l40.4,66.2c1.8,3,1.9,6.7.2,9.7-1.7,3-4.9,4.9-8.4,4.9h-.2ZM932.8,521.1h230.7l-33.4-54.7c-4.5,2.1-9.2,3.1-14.5,3.1-19.8,0-29.5-14.6-38.1-27.5-8.9-13.3-15.1-21.4-26.9-21.4s-18,8.1-26.9,21.4c-8.5,12.9-18.2,27.5-38.1,27.5s-12.8-1.7-18.3-5.2l-34.7,56.8h.2Z"/>
      </g>
      <g>
        <path class="st0" d="M1370.4,427.5c-1.2,0-2.4-.3-3.5-1l-130.2-79.5c-3.1-1.9-4.9-5.2-4.9-8.8s1.8-6.9,4.9-8.8l133.1-81.2c3-1.8,6.8-1.1,8.9,1.7,4.6,6.2,6.9,13,6.9,20.8,0,19.8-14.6,29.5-27.4,38.1-13.3,8.9-21.4,15.1-21.4,26.9s8.1,18,21.4,26.9c12.9,8.5,27.4,18.2,27.4,38.1s-3.4,17.5-10.3,24.7c-1.3,1.4-3.1,2.1-4.9,2.1h0ZM1248.1,338.3l120.8,73.7c2.2-3.5,3.2-7.1,3.2-11.3,0-11.8-8.1-18-21.4-26.9-12.9-8.5-27.4-18.2-27.4-38.1s14.6-29.5,27.4-38.1c13.3-8.9,21.4-15.1,21.4-26.9s-.4-5.1-1.3-7.4l-122.8,74.9h.1Z"/>
        <path class="st0" d="M1235.6,469.2c-1.7,0-3.5-.5-5-1.4l-69.1-42.1c-1.7-1.1-2.9-2.9-3.2-4.9-.3-2,.4-4,1.8-5.5,4.5-4.8,6.6-9.5,6.6-15.5,0-11.8-8.1-18-21.4-26.9-12.9-8.5-27.4-18.2-27.4-38.1s14.6-29.5,27.4-38.1c13.3-8.9,21.4-15.1,21.4-26.9s-1.3-8.9-4.2-12.7c-1.1-1.5-1.6-3.4-1.2-5.3.4-1.9,1.5-3.5,3.1-4.5l66.2-40.4c3-1.8,6.7-1.9,9.7-.2s4.9,4.9,4.9,8.4v244.3c0,3.5-1.9,6.7-4.9,8.4-1.5.8-3.1,1.2-4.7,1.2h0v.2ZM1174.9,418.1l56.8,34.7v-230.7l-54.7,33.4c2.1,4.5,3.1,9.2,3.1,14.4,0,19.8-14.6,29.5-27.4,38.1-13.3,8.9-21.4,15.1-21.4,26.9s8.1,18,21.4,26.9c12.9,8.5,27.4,18.2,27.4,38.1s-1.7,12.8-5.2,18.3h0Z"/>
      </g>
      <g>
        <path class="st0" d="M1049,153.8c-3.6,0-6.9-1.8-8.8-4.9L959,15.8c-1.8-3-1.1-6.8,1.7-8.9,6.3-4.7,13.1-6.9,20.8-6.9,19.8,0,29.5,14.6,38.1,27.5,8.9,13.3,15.1,21.4,26.9,21.4s18-8.1,26.9-21.4c8.5-12.9,18.2-27.5,38-27.5s17.5,3.4,24.7,10.3c2.3,2.2,2.7,5.7,1.1,8.4l-79.4,130.2c-1.9,3.1-5.2,4.9-8.8,4.9h0ZM974.1,14.7l74.9,122.8,73.7-120.8c-3.4-2.2-7.1-3.2-11.3-3.2-11.8,0-18,8.1-26.9,21.4-8.6,12.9-18.2,27.5-38.1,27.5s-29.5-14.6-38.1-27.5c-8.9-13.3-15.1-21.4-26.9-21.4s-5.1.4-7.4,1.3h.1Z"/>
        <path class="st0" d="M1045.6,267.8c-19.8,0-29.5-14.6-38.1-27.4-8.9-13.3-15.1-21.4-26.9-21.4s-8.8,1.3-12.7,4.2c-1.5,1.1-3.4,1.6-5.3,1.2-1.9-.4-3.5-1.5-4.5-3.1l-40.4-66.2c-1.8-3-1.9-6.7-.2-9.7s4.9-4.9,8.4-4.9h244.3c3.5,0,6.7,1.9,8.4,4.9,1.7,3,1.6,6.8-.2,9.7l-42.1,69.1c-1.1,1.7-2.8,2.9-4.9,3.2-2,.3-4-.4-5.5-1.8-4.8-4.5-9.5-6.6-15.4-6.6-11.8,0-18,8.1-26.9,21.4-8.6,12.9-18.2,27.5-38.1,27.5h0ZM980.6,205.4c19.8,0,29.5,14.6,38.1,27.4,8.9,13.3,15.1,21.4,26.9,21.4s18-8.1,26.9-21.4c8.6-12.9,18.2-27.4,38.1-27.4s12.8,1.7,18.3,5.2l34.7-56.8h-230.7l33.4,54.7c4.5-2.1,9.2-3.1,14.5-3.1h-.2Z"/>
      </g>
      <path class="st0" d="M1048.1,374.5c-20.4,0-37-16.6-37-37s16.6-37,37-37,37,16.6,37,37-16.6,37-37,37ZM1048.1,313.9c-13,0-23.6,10.6-23.6,23.6s10.6,23.6,23.6,23.6,23.6-10.6,23.6-23.6-10.6-23.6-23.6-23.6Z"/>
    </g>
    <g>
      <path class="st0" d="M1181.5,219.1c-1.7,0-3.4-.7-4.8-2-2.6-2.6-2.6-6.9,0-9.5l93.6-93.6c2.6-2.6,6.9-2.6,9.5,0s2.6,6.9,0,9.5l-93.6,93.6c-1.3,1.3-3,2-4.8,2h.1Z"/>
      <path class="st0" d="M923.1,210.8c-1.7,0-3.4-.7-4.8-2l-93.6-93.6c-2.6-2.6-2.6-6.9,0-9.5s6.9-2.6,9.5,0l93.6,93.6c2.6,2.6,2.6,6.9,0,9.5s-3,2-4.8,2h0Z"/>
      <path class="st0" d="M821.2,562.8c-1.7,0-3.4-.7-4.8-2-2.6-2.6-2.6-6.9,0-9.5l93.6-93.6c2.6-2.6,6.9-2.6,9.5,0s2.6,6.9,0,9.5l-93.6,93.6c-1.3,1.3-3,2-4.8,2h0Z"/>
      <path class="st0" d="M1266.8,571.1c-1.7,0-3.4-.7-4.8-2l-93.6-93.6c-2.6-2.6-2.6-6.9,0-9.5s6.9-2.6,9.5,0l93.6,93.6c2.6,2.6,2.6,6.9,0,9.5-1.3,1.3-3,2-4.8,2h.1Z"/>
    </g>
  </g>
</svg>