<?xml version="1.0" encoding="UTF-8"?>
<svg id="Capa_1" xmlns="http://www.w3.org/2000/svg" version="1.1" viewBox="0 0 2094.8 1214.3">
  <!-- Generator: Adobe Illustrator 30.1.0, SVG Export Plug-In . SVG Version: 2.1.1 Build 136)  -->
  <defs>
    <style>
      .st0 {
        fill: #cfccc6;
      }
    </style>
  </defs>
  <g>
    <path class="st0" d="M45.5,1184.2c-13.8-8.3-24.7-19.4-33-33.3-8.3-13.9-12.5-29.4-12.5-46.3s4.2-32.5,12.5-46.5c8.3-13.9,19.2-25.2,33-33.5,13.6-8.3,28.6-12.4,44.9-12.4s22.2,2,32.4,6.1c10.2,4.2,19.4,10,27.5,17.4l-10.8,10.8c-12.7-15.8-29.1-23.6-49.1-23.6s-24.9,3.6-35,10.6c-10.2,7-18,16.7-23.8,28.9-5.8,12.4-8.6,26.3-8.6,42.1s2.8,29.6,8.6,41.9c5.6,12.4,13.4,21.9,23.6,28.9s21.9,10.6,35.2,10.6c20.2,0,36.6-7.8,49.1-23.6l10.8,10.8c-8.1,7.3-17.4,13.1-27.5,17.2-10.2,4.2-21,6.3-32.4,6.3-16.3,0-31.3-4.2-44.9-12.5h0Z"/>
    <path class="st0" d="M248.9,1016.2h14.4l79.6,177.4h-173.8l79.8-177.4h0ZM248.9,1039.7l-64.3,143.3h130.8l-66.5-143.3h0Z"/>
    <path class="st0" d="M504.4,1193.6l-130.5-148v148h-10.6v-177.4h18l121.4,136.6v-136.6h10.6v177.4h-8.9Z"/>
    <path class="st0" d="M600.6,1193.6v-166.8h-63.8v-10.6h148.9v10.6h-63.8v166.8h-21.3Z"/>
    <path class="st0" d="M732.8,1184.2c-13.8-8.3-24.7-19.4-33-33.3-8.3-13.9-12.5-29.2-12.5-46.3s4.2-32.5,12.5-46.5c8.3-13.9,19.2-25.2,33-33.5,13.6-8.3,28.6-12.4,44.9-12.4s31.4,4.1,45.2,12.4c13.6,8.3,24.7,19.5,33,33.5,8.3,13.9,12.4,29.4,12.4,46.5s-4.1,32.4-12.4,46.3-19.4,25-33,33.3c-13.8,8.3-28.8,12.5-45.2,12.5s-31.3-4.2-44.9-12.5ZM813,1175.6c10.2-7,18-16.7,23.6-29.1s8.5-26.3,8.5-41.9c0-23.5-6.1-42.9-18.5-58-12.4-15.2-28.8-23-49-23.5-13.3,0-24.9,3.4-35,10.5s-18,16.7-23.8,29.1-8.6,26.3-8.6,41.9,2.8,29.6,8.6,41.9c5.6,12.4,13.5,22.1,23.6,29.1s21.9,10.6,35.2,10.6,25.2-3.6,35.3-10.6h.1Z"/>
    <path class="st0" d="M1107.4,1214.3l-19.9-19.9c-6.3,1.4-12.7,2-19.4,2-16.3,0-31.3-4.2-44.9-12.5-13.8-8.3-24.7-19.4-33-33.3s-12.5-29.2-12.5-46.3,4.2-32.5,12.5-46.5c8.3-13.9,19.2-25.2,33-33.5,13.6-8.3,28.6-12.4,44.9-12.4s31.4,4.1,45.2,12.4c13.6,8.3,24.7,19.5,33,33.5,8.3,13.9,12.4,29.4,12.4,46.5s-2.7,25.8-7.8,37.4c-5.2,11.6-12.4,21.6-21.3,30-9.1,8.6-19.4,15-31.1,19.4l23.2,23.2h-14.3,0ZM1078.5,1185.2l-34.6-34.7h14.1l31.8,31.8c14.2-5.2,25.3-14.7,33.6-28.6,8.1-13.9,12.2-30.3,12.2-49.3s-6.1-42.9-18.5-58c-12.4-15.2-28.8-23-49-23.5-13.3,0-24.9,3.4-35,10.5-10.2,7-18,16.7-23.8,29.1-5.8,12.4-8.6,26.3-8.6,41.9s2.8,29.6,8.6,41.9c5.6,12.4,13.5,22.1,23.6,29.1,10.2,7,21.9,10.6,35.2,10.6s7-.3,10.3-.8h0Z"/>
    <path class="st0" d="M1202.1,1178.9c-13.3-11.7-19.9-28.3-19.9-49.6v-113.6h21.3v113.6c0,12.2,2.3,22.5,7.2,31s11.6,14.9,20.2,19.2c8.6,4.4,18.8,6.6,30.2,6.6s14.1-1.2,21.1-3.8,13.4-6.1,19.2-11c5.8-4.8,10.3-10.8,13.9-17.8,3.4-7,5.2-15,5.2-24.2v-113.6h10.8v113.6c0,13.8-3.1,25.7-9.5,35.7-6.4,10.2-15.3,18-26.8,23.5s-24.7,8.3-39.6,8.3c-22.4,0-40.1-5.9-53.3-17.8h0Z"/>
    <path class="st0" d="M1354.8,1193.6v-177.4h127.7v10.6h-106.4v72.7h95.7v10.6h-95.7v72.7h110v10.6h-131.2v.2h0Z"/>
    <path class="st0" d="M1615.4,1178.9c-13.3-11.7-19.9-28.3-19.9-49.6v-113.6h21.3v113.6c0,12.2,2.3,22.5,7.2,31s11.6,14.9,20.2,19.2c8.6,4.4,18.8,6.6,30.2,6.6s14.1-1.2,21.1-3.8,13.4-6.1,19.2-11c5.8-4.8,10.3-10.8,13.9-17.8,3.4-7,5.2-15,5.2-24.2v-113.6h10.8v113.6c0,13.8-3.1,25.7-9.5,35.7-6.4,10.2-15.3,18-26.8,23.5s-24.7,8.3-39.6,8.3c-22.4,0-40.1-5.9-53.3-17.8h0Z"/>
    <path class="st0" d="M1909.2,1193.6l-130.5-148v148h-10.6v-177.4h18l121.4,136.6v-136.6h10.6v177.4h-8.9Z"/>
    <path class="st0" d="M1941.6,1193.6v-177.4h127.6v10.6h-106.4v72.7h95.7v10.6h-95.7v72.7h110v10.6h-131.2v.2h0Z"/>
  </g>
  <g>
    <g>
      <g>
        <path class="st0" d="M611.5,573.1c-2.8,0-5.5-1.2-7.2-3.6-6.2-8.3-9.3-17.4-9.3-27.9,0-26.5,19.6-39.5,36.9-51.1,17.8-11.9,28.7-20.2,28.7-36.1s-10.9-24.1-28.7-36.1c-17.3-11.4-36.9-24.4-36.9-51.1s4.6-23.5,13.8-33.1c2.9-3.1,7.6-3.6,11.3-1.5l174.6,106.4c4.2,2.5,6.6,7,6.6,11.8s-2.4,9.3-6.6,11.8l-178.4,108.9c-1.5.9-3.1,1.3-4.7,1.3h0ZM617.4,352.5c-2.9,4.7-4.3,9.5-4.3,15.1,0,15.8,10.9,24.1,28.7,36.1,17.3,11.4,36.9,24.4,36.9,51.1s-19.6,39.5-36.9,51.1c-17.8,11.9-28.7,20.2-28.7,36.1s.5,6.8,1.7,9.9l164.6-100.4-162-98.8h-.1Z"/>
        <path class="st0" d="M796.1,629c-2.1,0-4.3-.5-6.3-1.6-4-2.3-6.6-6.6-6.6-11.3v-327.5c0-4.7,2.5-9,6.6-11.3s9.1-2.1,13,.3l92.6,56.4c2.3,1.5,3.9,3.9,4.3,6.6s-.5,5.4-2.4,7.4c-6,6.4-8.8,12.7-8.8,20.8,0,15.8,10.9,24.1,28.7,36.1,17.3,11.4,36.9,24.4,36.9,51.1s-19.6,39.5-36.9,51.1c-17.8,11.9-28.7,20.2-28.7,36.1s1.7,11.8,5.6,17c1.5,2,2.1,4.6,1.6,7.1-.5,2.5-2,4.7-4.2,6l-88.8,54.2c-2,1.2-4.4,1.9-6.7,1.9h0v-.3h0ZM801.2,297.8v309.3l73.3-44.8c-2.8-6-4.2-12.3-4.2-19.4,0-26.5,19.6-39.5,36.9-51.1,17.8-11.9,28.7-20.2,28.7-36.1s-10.9-24.1-28.7-36.1c-17.3-11.4-36.9-24.4-36.9-51.1s2.3-17.2,7-24.5l-76.1-46.5h0v.3h0Z"/>
      </g>
      <g>
        <path class="st0" d="M1136.8,904.8c-26.5,0-39.5-19.6-51.1-36.9-11.9-17.8-20.2-28.7-36.1-28.7s-24.1,10.9-36.1,28.7c-11.4,17.3-24.4,36.9-51.1,36.9s-23.5-4.6-33.1-13.8c-3.1-2.9-3.6-7.6-1.5-11.3l106.4-174.6c2.5-4.2,7-6.6,11.8-6.6s9.3,2.4,11.8,6.6l108.9,178.4c2.4,4,1.5,9.1-2.3,11.9-8.3,6.2-17.4,9.3-27.9,9.3h.1ZM1049.6,821.3c26.5,0,39.5,19.6,51.1,36.9,11.9,17.8,20.2,28.7,36.1,28.7s6.8-.5,9.9-1.7l-100.4-164.6-98.8,162c4.7,2.9,9.5,4.3,15.1,4.3,15.8,0,24.1-10.9,36.1-28.7,11.4-17.3,24.4-36.9,51.1-36.9h-.1Z"/>
        <path class="st0" d="M1211.2,716.6h-327.5c-4.7,0-9-2.5-11.3-6.6s-2.1-9.1.3-13l56.4-92.6c1.5-2.3,3.8-3.9,6.6-4.3,2.7-.4,5.4.5,7.4,2.4,6.4,6,12.7,8.8,20.8,8.8,15.8,0,24.1-10.9,36.1-28.7,11.4-17.3,24.4-36.9,51.1-36.9s39.5,19.6,51.1,36.9c11.9,17.8,20.2,28.7,36.1,28.7s11.8-1.7,17-5.6c2-1.5,4.6-2.1,7.1-1.6s4.7,2,6,4.2l54.2,88.8c2.4,4,2.5,9,.3,13-2.3,4-6.6,6.6-11.3,6.6h-.3ZM892.8,698.6h309.3l-44.8-73.3c-6,2.8-12.3,4.2-19.4,4.2-26.5,0-39.5-19.6-51.1-36.9-11.9-17.8-20.2-28.7-36.1-28.7s-24.1,10.9-36.1,28.7c-11.4,17.3-24.4,36.9-51.1,36.9s-17.2-2.3-24.5-7l-46.5,76.1h.3Z"/>
      </g>
      <g>
        <path class="st0" d="M1479.4,573.1c-1.6,0-3.2-.4-4.7-1.3l-174.6-106.6c-4.2-2.5-6.6-7-6.6-11.8s2.4-9.3,6.6-11.8l178.4-108.9c4-2.4,9.1-1.5,11.9,2.3,6.2,8.3,9.3,17.4,9.3,27.9,0,26.5-19.6,39.5-36.7,51.1-17.8,11.9-28.7,20.2-28.7,36.1s10.9,24.1,28.7,36.1c17.3,11.4,36.7,24.4,36.7,51.1s-4.6,23.5-13.8,33.1c-1.7,1.9-4.2,2.8-6.6,2.8h0ZM1315.5,453.5l162,98.8c2.9-4.7,4.3-9.5,4.3-15.1,0-15.8-10.9-24.1-28.7-36.1-17.3-11.4-36.7-24.4-36.7-51.1s19.6-39.5,36.7-51.1c17.8-11.9,28.7-20.2,28.7-36.1s-.5-6.8-1.7-9.9l-164.6,100.4h.1Z"/>
        <path class="st0" d="M1298.7,629c-2.3,0-4.7-.7-6.7-1.9l-92.6-56.4c-2.3-1.5-3.9-3.9-4.3-6.6-.4-2.7.5-5.4,2.4-7.4,6-6.4,8.8-12.7,8.8-20.8,0-15.8-10.9-24.1-28.7-36.1-17.3-11.4-36.7-24.4-36.7-51.1s19.6-39.5,36.7-51.1c17.8-11.9,28.7-20.2,28.7-36.1s-1.7-11.9-5.6-17c-1.5-2-2.1-4.6-1.6-7.1.5-2.5,2-4.7,4.2-6l88.8-54.2c4-2.4,9-2.5,13-.3s6.6,6.6,6.6,11.3v327.5c0,4.7-2.5,9-6.6,11.3-2,1.1-4.2,1.6-6.3,1.6h0v.3h0ZM1217.3,560.5l76.1,46.5v-309.3l-73.3,44.8c2.8,6,4.2,12.3,4.2,19.3,0,26.5-19.6,39.5-36.7,51.1-17.8,11.9-28.7,20.2-28.7,36.1s10.9,24.1,28.7,36.1c17.3,11.4,36.7,24.4,36.7,51.1s-2.3,17.2-7,24.5h0Z"/>
      </g>
      <g>
        <path class="st0" d="M1048.5,206.2c-4.8,0-9.3-2.4-11.8-6.6l-108.9-178.4c-2.4-4-1.5-9.1,2.3-11.9,8.4-6.3,17.6-9.3,27.9-9.3,26.5,0,39.5,19.6,51.1,36.9,11.9,17.8,20.2,28.7,36.1,28.7s24.1-10.9,36.1-28.7C1092.6,19.6,1105.7,0,1132.2,0s23.5,4.6,33.1,13.8c3.1,2.9,3.6,7.6,1.5,11.3l-106.4,174.6c-2.5,4.2-7,6.6-11.8,6.6h0ZM948.1,19.7l100.4,164.6,98.8-162c-4.6-2.9-9.5-4.3-15.1-4.3-15.8,0-24.1,10.9-36.1,28.7-11.5,17.3-24.4,36.9-51.1,36.9s-39.5-19.6-51.1-36.9c-11.9-17.8-20.2-28.7-36.1-28.7s-6.8.5-9.9,1.7h.1Z"/>
        <path class="st0" d="M1044,359c-26.5,0-39.5-19.6-51.1-36.7-11.9-17.8-20.2-28.7-36.1-28.7s-11.8,1.7-17,5.6c-2,1.5-4.6,2.1-7.1,1.6-2.5-.5-4.7-2-6-4.2l-54.2-88.8c-2.4-4-2.5-9-.3-13s6.6-6.6,11.3-6.6h327.5c4.7,0,9,2.5,11.3,6.6,2.3,4,2.1,9.1-.3,13l-56.4,92.6c-1.5,2.3-3.8,3.9-6.6,4.3-2.7.4-5.4-.5-7.4-2.4-6.4-6-12.7-8.8-20.6-8.8-15.8,0-24.1,10.9-36.1,28.7-11.5,17.3-24.4,36.9-51.1,36.9h.1ZM956.8,275.4c26.5,0,39.5,19.6,51.1,36.7,11.9,17.8,20.2,28.7,36.1,28.7s24.1-10.9,36.1-28.7c11.5-17.3,24.4-36.7,51.1-36.7s17.2,2.3,24.5,7l46.5-76.1h-309.3l44.8,73.3c6-2.8,12.3-4.2,19.4-4.2h-.3Z"/>
      </g>
      <path class="st0" d="M1047.3,502.1c-27.3,0-49.6-22.3-49.6-49.6s22.3-49.6,49.6-49.6,49.6,22.3,49.6,49.6-22.3,49.6-49.6,49.6ZM1047.3,420.8c-17.4,0-31.6,14.2-31.6,31.6s14.2,31.6,31.6,31.6,31.6-14.2,31.6-31.6-14.2-31.6-31.6-31.6Z"/>
    </g>
    <g>
      <path class="st0" d="M1226.2,293.7c-2.3,0-4.6-.9-6.4-2.7-3.5-3.5-3.5-9.3,0-12.7l125.5-125.5c3.5-3.5,9.3-3.5,12.7,0s3.5,9.3,0,12.7l-125.5,125.5c-1.7,1.7-4,2.7-6.4,2.7h.1Z"/>
      <path class="st0" d="M879.7,282.6c-2.3,0-4.6-.9-6.4-2.7l-125.5-125.5c-3.5-3.5-3.5-9.3,0-12.7s9.3-3.5,12.7,0l125.5,125.5c3.5,3.5,3.5,9.3,0,12.7s-4,2.7-6.4,2.7h.1Z"/>
      <path class="st0" d="M743.1,754.5c-2.3,0-4.6-.9-6.4-2.7-3.5-3.5-3.5-9.3,0-12.7l125.5-125.5c3.5-3.5,9.3-3.5,12.7,0s3.5,9.3,0,12.7l-125.5,125.5c-1.7,1.7-4,2.7-6.4,2.7h.1Z"/>
      <path class="st0" d="M1340.5,765.7c-2.3,0-4.6-.9-6.4-2.7l-125.5-125.5c-3.5-3.5-3.5-9.3,0-12.7s9.3-3.5,12.7,0l125.5,125.5c3.5,3.5,3.5,9.3,0,12.7-1.7,1.7-4,2.7-6.4,2.7h.1Z"/>
    </g>
  </g>
</svg>