<?xml version="1.0" encoding="UTF-8"?>
<svg id="Capa_1" data-name="Capa 1" xmlns="http://www.w3.org/2000/svg" viewBox="0 0 2544.63 376.89">
  <defs>
    <style>
      .cls-1 {
        fill: #cfccc6;
      }
    </style>
  </defs>
  <g>
    <path class="cls-1" d="M517.34,267.36c-13.77-8.29-24.72-19.4-33.01-33.32-8.29-13.92-12.51-29.41-12.51-46.3s4.22-32.54,12.51-46.46c8.29-13.92,19.24-25.19,33.01-33.48,13.61-8.29,28.63-12.36,44.9-12.36,11.42,0,22.21,2.03,32.38,6.1,10.17,4.22,19.4,10.01,27.53,17.36l-10.79,10.79c-12.67-15.8-29.1-23.62-49.12-23.62-13.3,0-24.87,3.6-35.04,10.64-10.17,7.04-17.99,16.74-23.78,28.94-5.79,12.36-8.6,26.28-8.6,42.08s2.82,29.57,8.6,41.92c5.63,12.36,13.45,21.9,23.62,28.94,10.17,7.04,21.9,10.64,35.2,10.64,20.18,0,36.61-7.82,49.12-23.62l10.79,10.79c-8.13,7.35-17.36,13.14-27.53,17.21-10.17,4.22-20.96,6.26-32.38,6.26-16.27,0-31.29-4.22-44.9-12.51Z"/>
    <path class="cls-1" d="M720.71,99.35h14.39l79.62,177.4h-173.8l79.78-177.4ZM720.71,122.81l-64.29,143.29h130.78l-66.48-143.29Z"/>
    <path class="cls-1" d="M976.17,276.74l-130.46-147.99v147.99h-10.64V99.35h17.99l121.39,136.57V99.35h10.64v177.4h-8.92Z"/>
    <path class="cls-1" d="M1072.38,276.74V109.99h-63.82v-10.64h148.92v10.64h-63.82v166.76h-21.28Z"/>
    <path class="cls-1" d="M1204.58,267.36c-13.77-8.29-24.72-19.4-33.01-33.32-8.29-13.92-12.52-29.25-12.52-46.3s4.22-32.54,12.52-46.46c8.29-13.92,19.24-25.19,33.01-33.48,13.61-8.29,28.63-12.36,44.89-12.36s31.44,4.07,45.21,12.36c13.61,8.29,24.71,19.55,33.01,33.48,8.29,13.92,12.36,29.41,12.36,46.46s-4.07,32.38-12.36,46.3c-8.29,13.92-19.4,25.03-33.01,33.32-13.77,8.29-28.79,12.51-45.21,12.51s-31.29-4.22-44.89-12.51ZM1284.83,258.76c10.17-7.04,17.99-16.74,23.62-29.1,5.63-12.36,8.45-26.28,8.45-41.92,0-23.47-6.1-42.86-18.46-58.04-12.36-15.17-28.78-23-48.96-23.47-13.3,0-24.87,3.44-35.04,10.48-10.17,7.04-17.99,16.74-23.78,29.1-5.79,12.36-8.6,26.28-8.6,41.92s2.82,29.57,8.6,41.92c5.63,12.36,13.45,22.06,23.62,29.1s21.9,10.64,35.2,10.64,25.19-3.6,35.36-10.64Z"/>
    <path class="cls-1" d="M1579.24,297.39l-19.87-19.87c-6.26,1.41-12.67,2.03-19.4,2.03-16.27,0-31.29-4.22-44.9-12.51-13.77-8.29-24.72-19.4-33.01-33.32s-12.51-29.25-12.51-46.3,4.22-32.54,12.51-46.46c8.29-13.92,19.24-25.19,33.01-33.48,13.61-8.29,28.63-12.36,44.9-12.36s31.44,4.07,45.21,12.36c13.61,8.29,24.72,19.55,33.01,33.48,8.29,13.92,12.36,29.41,12.36,46.46,0,13.3-2.66,25.81-7.82,37.39-5.16,11.58-12.36,21.59-21.28,30.04-9.07,8.6-19.4,15.02-31.13,19.4l23.15,23.15h-14.24ZM1550.3,268.3l-34.57-34.73h14.08l31.76,31.76c14.23-5.16,25.34-14.71,33.63-28.63,8.13-13.92,12.2-30.35,12.2-49.28,0-23.46-6.1-42.86-18.46-58.04-12.36-15.17-28.78-23-48.96-23.47-13.3,0-24.87,3.44-35.04,10.48-10.17,7.04-17.99,16.74-23.78,29.1-5.79,12.36-8.6,26.28-8.6,41.92s2.81,29.57,8.6,41.92c5.63,12.36,13.45,22.06,23.62,29.1s21.9,10.64,35.2,10.64c3.6,0,7.04-.31,10.32-.78Z"/>
    <path class="cls-1" d="M1673.89,262.04c-13.3-11.73-19.87-28.31-19.87-49.59v-113.57h21.28v113.57c0,12.2,2.35,22.53,7.2,30.97s11.58,14.86,20.18,19.24c8.61,4.38,18.77,6.57,30.19,6.57,7.04,0,14.08-1.25,21.12-3.75s13.45-6.1,19.24-10.95c5.79-4.85,10.32-10.79,13.92-17.83,3.44-7.04,5.16-15.02,5.16-24.25v-113.57h10.79v113.57c0,13.77-3.13,25.65-9.54,35.67-6.41,10.17-15.33,17.99-26.75,23.47-11.42,5.48-24.72,8.29-39.58,8.29-22.37,0-40.05-5.94-53.34-17.83Z"/>
    <path class="cls-1" d="M1826.58,276.74V99.35h127.65v10.64h-106.38v72.74h95.74v10.64h-95.74v72.74h109.97v10.64h-131.25Z"/>
    <path class="cls-1" d="M2087.2,262.04c-13.3-11.73-19.87-28.31-19.87-49.59v-113.57h21.28v113.57c0,12.2,2.35,22.53,7.2,30.97s11.58,14.86,20.18,19.24c8.61,4.38,18.77,6.57,30.19,6.57,7.04,0,14.08-1.25,21.12-3.75s13.45-6.1,19.24-10.95c5.79-4.85,10.32-10.79,13.92-17.83,3.44-7.04,5.16-15.02,5.16-24.25v-113.57h10.79v113.57c0,13.77-3.13,25.65-9.54,35.67-6.41,10.17-15.33,17.99-26.75,23.47-11.42,5.48-24.72,8.29-39.58,8.29-22.37,0-40.05-5.94-53.34-17.83Z"/>
    <path class="cls-1" d="M2380.99,276.74l-130.46-147.99v147.99h-10.64V99.35h17.99l121.39,136.57V99.35h10.64v177.4h-8.92Z"/>
    <path class="cls-1" d="M2413.38,276.74V99.35h127.65v10.64h-106.38v72.74h95.74v10.64h-95.74v72.74h109.97v10.64h-131.25Z"/>
  </g>
  <g>
    <g>
      <g>
        <path class="cls-1" d="M6.86,238.75c-1.15,0-2.28-.53-3.01-1.51-2.59-3.47-3.85-7.26-3.85-11.59,0-11.08,8.14-16.49,15.33-21.26,7.45-4.95,11.98-8.43,11.98-15.01s-4.52-10.06-11.98-15.01c-7.18-4.77-15.33-10.18-15.33-21.26,0-5.25,1.88-9.77,5.75-13.81,1.22-1.27,3.16-1.53,4.67-.61l72.73,44.37c1.72,1.05,2.75,2.88,2.75,4.9,0,2.02-1.03,3.85-2.75,4.9L8.81,238.2c-.61.37-1.28.55-1.95.55ZM9.31,146.81c-1.24,1.92-1.81,3.95-1.81,6.3,0,6.58,4.52,10.06,11.98,15.01,7.18,4.77,15.33,10.18,15.33,21.26s-8.14,16.49-15.33,21.26c-7.45,4.95-11.98,8.43-11.98,15.01,0,1.49.23,2.84.71,4.12l68.55-41.82L9.31,146.81Z"/>
        <path class="cls-1" d="M83.77,262.03c-.91,0-1.81-.23-2.63-.69-1.69-.95-2.75-2.75-2.75-4.69V120.23c0-1.94,1.05-3.74,2.75-4.69,1.69-.95,3.78-.91,5.43.1l38.57,23.53c.97.59,1.62,1.59,1.77,2.72.15,1.13-.22,2.26-1.01,3.08-2.53,2.65-3.66,5.31-3.66,8.63,0,6.58,4.52,10.06,11.97,15.01,7.18,4.77,15.33,10.18,15.33,21.26s-8.14,16.49-15.33,21.26c-7.45,4.95-11.98,8.43-11.98,15.01,0,2.68.75,4.94,2.36,7.1.63.85.88,1.92.68,2.96-.2,1.04-.83,1.94-1.73,2.49l-36.97,22.56c-.86.52-1.83.79-2.8.79ZM85.89,124.02v128.84l30.57-18.65c-1.16-2.49-1.73-5.16-1.73-8.07,0-11.08,8.14-16.49,15.33-21.26,7.45-4.95,11.98-8.43,11.98-15.01s-4.52-10.06-11.98-15.01c-7.18-4.77-15.33-10.18-15.33-21.26,0-3.75.96-7.12,2.91-10.21l-31.74-19.36Z"/>
      </g>
      <g>
        <path class="cls-1" d="M225.66,376.89c-11.08,0-16.49-8.14-21.26-15.33-4.95-7.45-8.43-11.98-15.01-11.98s-10.06,4.52-15.01,11.98c-4.77,7.18-10.18,15.33-21.26,15.33-5.25,0-9.77-1.88-13.81-5.74-1.27-1.22-1.53-3.16-.61-4.67l44.37-72.73c1.05-1.72,2.88-2.75,4.9-2.75s3.85,1.03,4.9,2.75l45.35,74.33c1.01,1.65.59,3.8-.96,4.96-3.47,2.59-7.26,3.85-11.59,3.85ZM189.38,342.08c11.08,0,16.49,8.14,21.26,15.33,4.95,7.45,8.43,11.98,15.01,11.98,1.49,0,2.84-.23,4.12-.71l-41.82-68.55-41.15,67.45c1.92,1.24,3.95,1.81,6.3,1.81,6.58,0,10.06-4.52,15.01-11.98,4.77-7.18,10.18-15.33,21.26-15.33Z"/>
        <path class="cls-1" d="M256.66,298.5H120.23c-1.94,0-3.74-1.05-4.69-2.75-.95-1.69-.91-3.78.1-5.43l23.53-38.57c.59-.97,1.59-1.62,2.72-1.77,1.12-.15,2.26.22,3.08,1.01,2.65,2.53,5.31,3.66,8.63,3.66,6.58,0,10.06-4.52,15.01-11.98,4.77-7.18,10.18-15.33,21.26-15.33s16.49,8.14,21.26,15.33c4.95,7.45,8.43,11.98,15.01,11.98,2.68,0,4.94-.75,7.1-2.36.85-.63,1.92-.88,2.96-.68,1.04.2,1.94.83,2.49,1.73l22.56,36.97c1.01,1.66,1.05,3.74.1,5.43-.95,1.69-2.75,2.75-4.69,2.75ZM124.02,291h128.84l-18.65-30.57c-2.49,1.16-5.16,1.73-8.07,1.73-11.08,0-16.49-8.14-21.26-15.33-4.95-7.45-8.43-11.98-15.01-11.98s-10.06,4.52-15.01,11.98c-4.77,7.18-10.18,15.33-21.26,15.33-3.75,0-7.12-.96-10.21-2.91l-19.36,31.74Z"/>
      </g>
      <g>
        <path class="cls-1" d="M368.43,238.75c-.67,0-1.35-.18-1.95-.55l-72.73-44.37c-1.72-1.05-2.75-2.88-2.75-4.9,0-2.02,1.03-3.85,2.75-4.9l74.33-45.34c1.65-1.01,3.8-.59,4.96.96,2.59,3.47,3.85,7.26,3.85,11.59,0,11.08-8.14,16.49-15.33,21.26-7.45,4.95-11.98,8.43-11.98,15.01s4.52,10.06,11.98,15.01c7.18,4.77,15.33,10.18,15.33,21.26,0,5.25-1.88,9.77-5.75,13.81-.73.76-1.72,1.16-2.71,1.16ZM300.12,188.93l67.45,41.15c1.24-1.92,1.81-3.95,1.81-6.3,0-6.58-4.52-10.06-11.98-15.01-7.18-4.77-15.33-10.18-15.33-21.26s8.14-16.49,15.33-21.26c7.45-4.95,11.98-8.43,11.98-15.01,0-1.49-.23-2.84-.71-4.12l-68.55,41.82Z"/>
        <path class="cls-1" d="M293.12,262.03c-.97,0-1.94-.26-2.8-.79l-38.57-23.53c-.97-.59-1.62-1.59-1.77-2.72-.15-1.13.22-2.26,1.01-3.08,2.53-2.65,3.66-5.31,3.66-8.63,0-6.58-4.52-10.06-11.98-15.01-7.18-4.77-15.33-10.18-15.33-21.26s8.14-16.49,15.33-21.26c7.45-4.95,11.98-8.43,11.98-15.01,0-2.68-.75-4.94-2.36-7.1-.63-.85-.88-1.92-.68-2.96.2-1.04.83-1.94,1.73-2.49l36.97-22.56c1.66-1.01,3.74-1.05,5.43-.1,1.69.95,2.75,2.75,2.75,4.69v136.42c0,1.94-1.05,3.74-2.75,4.69-.82.46-1.72.69-2.63.69ZM259.25,233.5l31.74,19.36V124.02l-30.57,18.65c1.16,2.49,1.73,5.16,1.73,8.07,0,11.08-8.14,16.49-15.33,21.26-7.45,4.95-11.98,8.43-11.98,15.01s4.52,10.06,11.98,15.01c7.18,4.77,15.33,10.18,15.33,21.26,0,3.75-.96,7.12-2.91,10.21Z"/>
      </g>
      <g>
        <path class="cls-1" d="M188.93,85.89c-2.02,0-3.85-1.03-4.9-2.75L138.69,8.81c-1.01-1.65-.59-3.8.96-4.96,3.47-2.59,7.26-3.85,11.59-3.85,11.08,0,16.49,8.14,21.26,15.33,4.95,7.45,8.43,11.98,15.01,11.98s10.06-4.52,15.01-11.98c4.77-7.18,10.18-15.33,21.26-15.33,5.25,0,9.77,1.88,13.81,5.74,1.27,1.22,1.53,3.16.61,4.67l-44.37,72.73c-1.05,1.72-2.88,2.75-4.9,2.75ZM147.11,8.21l41.82,68.55L230.08,9.31c-1.92-1.24-3.95-1.81-6.3-1.81-6.58,0-10.06,4.52-15.01,11.98-4.77,7.18-10.18,15.33-21.26,15.33s-16.49-8.14-21.26-15.33c-4.95-7.45-8.43-11.98-15.01-11.98-1.49,0-2.84.23-4.12.71Z"/>
        <path class="cls-1" d="M187.02,149.54c-11.08,0-16.49-8.14-21.26-15.33-4.95-7.45-8.43-11.98-15.01-11.98-2.68,0-4.94.75-7.1,2.36-.85.63-1.92.88-2.96.68-1.04-.2-1.94-.83-2.49-1.73l-22.56-36.97c-1.01-1.66-1.05-3.74-.1-5.43.95-1.69,2.75-2.75,4.69-2.75h136.42c1.94,0,3.74,1.05,4.69,2.75.95,1.69.91,3.78-.1,5.43l-23.53,38.57c-.59.97-1.59,1.62-2.72,1.77-1.12.15-2.26-.22-3.08-1.01-2.65-2.53-5.31-3.66-8.63-3.66-6.58,0-10.06,4.52-15.01,11.98-4.77,7.18-10.18,15.33-21.26,15.33ZM150.74,114.73c11.08,0,16.49,8.14,21.26,15.33,4.95,7.45,8.43,11.98,15.01,11.98s10.06-4.52,15.01-11.98c4.77-7.18,10.18-15.33,21.26-15.33,3.75,0,7.12.96,10.21,2.91l19.36-31.74H124.02l18.65,30.57c2.49-1.16,5.16-1.73,8.07-1.73Z"/>
      </g>
      <path class="cls-1" d="M188.45,209.12c-11.4,0-20.67-9.27-20.67-20.67s9.27-20.67,20.67-20.67,20.67,9.27,20.67,20.67-9.27,20.67-20.67,20.67ZM188.45,175.28c-7.26,0-13.17,5.91-13.17,13.17s5.91,13.17,13.17,13.17,13.17-5.91,13.17-13.17-5.91-13.17-13.17-13.17Z"/>
    </g>
    <g>
      <path class="cls-1" d="M262.93,122.36c-.96,0-1.92-.37-2.65-1.1-1.47-1.47-1.47-3.84,0-5.31l52.27-52.27c1.47-1.47,3.84-1.47,5.31,0,1.47,1.47,1.47,3.84,0,5.31l-52.27,52.27c-.73.73-1.69,1.1-2.65,1.1Z"/>
      <path class="cls-1" d="M118.61,117.72c-.96,0-1.92-.37-2.65-1.1l-52.27-52.27c-1.47-1.47-1.47-3.84,0-5.31,1.47-1.47,3.84-1.46,5.31,0l52.27,52.27c1.47,1.47,1.47,3.84,0,5.31-.73.73-1.69,1.1-2.65,1.1Z"/>
      <path class="cls-1" d="M61.69,314.31c-.96,0-1.92-.37-2.65-1.1-1.47-1.47-1.47-3.84,0-5.31l52.27-52.27c1.47-1.47,3.84-1.47,5.31,0,1.47,1.47,1.47,3.84,0,5.31l-52.27,52.27c-.73.73-1.69,1.1-2.65,1.1Z"/>
      <path class="cls-1" d="M310.56,318.95c-.96,0-1.92-.37-2.65-1.1l-52.27-52.27c-1.47-1.47-1.47-3.84,0-5.31,1.47-1.47,3.84-1.47,5.31,0l52.27,52.27c1.47,1.47,1.47,3.84,0,5.31-.73.73-1.69,1.1-2.65,1.1Z"/>
    </g>
  </g>
</svg>