<?xml version="1.0" encoding="UTF-8"?>
<svg id="Capa_1" xmlns="http://www.w3.org/2000/svg" version="1.1" viewBox="0 0 1954.3 366.2">
  <!-- Generator: Adobe Illustrator 30.1.0, SVG Export Plug-In . SVG Version: 2.1.1 Build 136)  -->
  <defs>
    <style>
      .st0 {
        fill: #cfccc6;
      }
    </style>
  </defs>
  <g>
    <path class="st0" d="M401.1,243.3c-10.5-6.3-18.9-14.8-25.2-25.4-6.3-10.6-9.5-22.4-9.5-35.3s3.2-24.8,9.5-35.4c6.3-10.6,14.7-19.2,25.2-25.5,10.4-6.3,21.8-9.4,34.3-9.4s16.9,1.5,24.7,4.7c7.8,3.2,14.8,7.6,21,13.2l-8.2,8.2c-9.7-12.1-22.2-18-37.5-18s-19,2.7-26.7,8.1-13.7,12.8-18.1,22.1c-4.4,9.4-6.6,20.1-6.6,32.1s2.2,22.6,6.6,32c4.3,9.4,10.3,16.7,18,22.1,7.8,5.4,16.7,8.1,26.9,8.1,15.4,0,27.9-6,37.5-18l8.2,8.2c-6.2,5.6-13.2,10-21,13.1-7.8,3.2-16,4.8-24.7,4.8-12.4,0-23.9-3.2-34.3-9.5h0v-.2Z"/>
    <path class="st0" d="M556.3,115.1h11l60.8,135.4h-132.6l60.9-135.4h0ZM556.3,133l-49.1,109.3h99.8l-50.7-109.3h0Z"/>
    <path class="st0" d="M751.2,250.4l-99.5-112.9v112.9h-8.1V115.1h13.7l92.6,104.2v-104.2h8.1v135.4h-6.8Z"/>
    <path class="st0" d="M824.6,250.4v-127.2h-48.7v-8.1h113.6v8.1h-48.7v127.2h-16.2,0Z"/>
    <path class="st0" d="M925.5,243.3c-10.5-6.3-18.9-14.8-25.2-25.4-6.3-10.6-9.6-22.3-9.6-35.3s3.2-24.8,9.6-35.4c6.3-10.6,14.7-19.2,25.2-25.5,10.4-6.3,21.8-9.4,34.3-9.4s24,3.1,34.5,9.4c10.4,6.3,18.9,14.9,25.2,25.5s9.4,22.4,9.4,35.4-3.1,24.7-9.4,35.3c-6.3,10.6-14.8,19.1-25.2,25.4-10.5,6.3-22,9.5-34.5,9.5s-23.9-3.2-34.3-9.5h0ZM986.7,236.7c7.8-5.4,13.7-12.8,18-22.2s6.4-20.1,6.4-32c0-17.9-4.7-32.7-14.1-44.3-9.4-11.6-22-17.5-37.4-17.9-10.1,0-19,2.6-26.7,8-7.8,5.4-13.7,12.8-18.1,22.2s-6.6,20.1-6.6,32,2.2,22.6,6.6,32c4.3,9.4,10.3,16.8,18,22.2,7.8,5.4,16.7,8.1,26.9,8.1s19.2-2.7,27-8.1h0Z"/>
    <path class="st0" d="M1211.4,266.2l-15.2-15.2c-4.8,1.1-9.7,1.5-14.8,1.5-12.4,0-23.9-3.2-34.3-9.5-10.5-6.3-18.9-14.8-25.2-25.4s-9.5-22.3-9.5-35.3,3.2-24.8,9.5-35.4,14.7-19.2,25.2-25.5c10.4-6.3,21.8-9.4,34.3-9.4s24,3.1,34.5,9.4c10.4,6.3,18.9,14.9,25.2,25.5,6.3,10.6,9.4,22.4,9.4,35.4s-2,19.7-6,28.5c-3.9,8.8-9.4,16.5-16.2,22.9-6.9,6.6-14.8,11.5-23.8,14.8l17.7,17.7h-10.9.1ZM1189.3,244l-26.4-26.5h10.7l24.2,24.2c10.9-3.9,19.3-11.2,25.7-21.8,6.2-10.6,9.3-23.2,9.3-37.6s-4.7-32.7-14.1-44.3-22-17.5-37.4-17.9c-10.1,0-19,2.6-26.7,8-7.8,5.4-13.7,12.8-18.1,22.2s-6.6,20.1-6.6,32,2.1,22.6,6.6,32c4.3,9.4,10.3,16.8,18,22.2,7.8,5.4,16.7,8.1,26.9,8.1s5.4-.2,7.9-.6h0Z"/>
    <path class="st0" d="M1283.6,239.2c-10.1-9-15.2-21.6-15.2-37.8v-86.7h16.2v86.7c0,9.3,1.8,17.2,5.5,23.6s8.8,11.3,15.4,14.7c6.6,3.3,14.3,5,23,5s10.7-1,16.1-2.9,10.3-4.7,14.7-8.4c4.4-3.7,7.9-8.2,10.6-13.6,2.6-5.4,3.9-11.5,3.9-18.5v-86.7h8.2v86.7c0,10.5-2.4,19.6-7.3,27.2-4.9,7.8-11.7,13.7-20.4,17.9-8.7,4.2-18.9,6.3-30.2,6.3-17.1,0-30.6-4.5-40.7-13.6h.2Z"/>
    <path class="st0" d="M1400.1,250.4V115.1h97.4v8.1h-81.2v55.5h73.1v8.1h-73.1v55.5h83.9v8.1h-100.1Z"/>
    <path class="st0" d="M1599,239.2c-10.1-9-15.2-21.6-15.2-37.8v-86.7h16.2v86.7c0,9.3,1.8,17.2,5.5,23.6s8.8,11.3,15.4,14.7c6.6,3.3,14.3,5,23,5s10.7-1,16.1-2.9,10.3-4.7,14.7-8.4c4.4-3.7,7.9-8.2,10.6-13.6,2.6-5.4,3.9-11.5,3.9-18.5v-86.7h8.2v86.7c0,10.5-2.4,19.6-7.3,27.2-4.9,7.8-11.7,13.7-20.4,17.9-8.7,4.2-18.9,6.3-30.2,6.3-17.1,0-30.6-4.5-40.7-13.6h.2Z"/>
    <path class="st0" d="M1823.1,250.4l-99.5-112.9v112.9h-8.1V115.1h13.7l92.6,104.2v-104.2h8.1v135.4h-6.8,0Z"/>
    <path class="st0" d="M1847.8,250.4V115.1h97.4v8.1h-81.2v55.5h73.1v8.1h-73.1v55.5h83.9v8.1h-100.1Z"/>
  </g>
  <g>
    <g>
      <g>
        <path class="st0" d="M11.6,221.4c-.9,0-1.7-.4-2.3-1.2-1.9-2.6-2.9-5.5-2.9-8.8,0-8.4,6.2-12.5,11.7-16.2,5.7-3.8,9.1-6.4,9.1-11.5s-3.4-7.7-9.1-11.5c-5.5-3.6-11.7-7.8-11.7-16.2s1.4-7.5,4.4-10.5c.9-1,2.4-1.2,3.6-.5l55.5,33.9c1.3.8,2.1,2.2,2.1,3.7s-.8,2.9-2.1,3.7l-56.8,34.7c-.5.3-1,.4-1.5.4h0ZM13.5,151.3c-.9,1.5-1.4,3-1.4,4.8,0,5,3.4,7.7,9.1,11.5,5.5,3.6,11.7,7.8,11.7,16.2s-6.2,12.6-11.7,16.2c-5.7,3.8-9.1,6.4-9.1,11.5s.2,2.2.5,3.1l52.3-31.9-51.5-31.4h0Z"/>
        <path class="st0" d="M70.3,239.2c-.7,0-1.4-.2-2-.5-1.3-.7-2.1-2.1-2.1-3.6v-104.1c0-1.5.8-2.9,2.1-3.6,1.3-.7,2.9-.7,4.1,0l29.4,18c.7.5,1.2,1.2,1.4,2.1,0,.9-.2,1.7-.8,2.4-1.9,2-2.8,4.1-2.8,6.6,0,5,3.4,7.7,9.1,11.5,5.5,3.6,11.7,7.8,11.7,16.2s-6.2,12.6-11.7,16.2c-5.7,3.8-9.1,6.4-9.1,11.5s.6,3.8,1.8,5.4c.5.6.7,1.5.5,2.3s-.6,1.5-1.3,1.9l-28.2,17.2c-.7.4-1.4.6-2.1.6h0ZM71.9,133.9v98.3l23.3-14.2c-.9-1.9-1.3-3.9-1.3-6.2,0-8.5,6.2-12.6,11.7-16.2,5.7-3.8,9.1-6.4,9.1-11.5s-3.4-7.7-9.1-11.5c-5.5-3.6-11.7-7.8-11.7-16.2s.7-5.4,2.2-7.8l-24.2-14.8h0Z"/>
      </g>
      <g>
        <path class="st0" d="M178.6,326.8c-8.5,0-12.6-6.2-16.2-11.7-3.8-5.7-6.4-9.1-11.5-9.1s-7.7,3.4-11.5,9.1c-3.6,5.5-7.8,11.7-16.2,11.7s-7.5-1.4-10.5-4.4c-1-.9-1.2-2.4-.5-3.6l33.9-55.5c.8-1.3,2.2-2.1,3.7-2.1s2.9.8,3.7,2.1l34.6,56.7c.8,1.3.5,2.9-.7,3.8-2.6,2-5.5,2.9-8.8,2.9h0ZM150.9,300.3c8.5,0,12.6,6.2,16.2,11.7,3.8,5.7,6.4,9.1,11.5,9.1s2.2-.2,3.1-.5l-31.9-52.3-31.4,51.5c1.5.9,3,1.4,4.8,1.4,5,0,7.7-3.4,11.5-9.1,3.6-5.5,7.8-11.7,16.2-11.7h0Z"/>
        <path class="st0" d="M202.2,267h-104.1c-1.5,0-2.9-.8-3.6-2.1-.7-1.3-.7-2.9,0-4.1l18-29.4c.5-.7,1.2-1.2,2.1-1.4.9-.1,1.7.2,2.4.8,2,1.9,4.1,2.8,6.6,2.8,5,0,7.7-3.4,11.5-9.1,3.6-5.5,7.8-11.7,16.2-11.7s12.6,6.2,16.2,11.7c3.8,5.7,6.4,9.1,11.5,9.1s3.8-.6,5.4-1.8c.6-.5,1.5-.7,2.3-.5s1.5.6,1.9,1.3l17.2,28.2c.8,1.3.8,2.9,0,4.1-.7,1.3-2.1,2.1-3.6,2.1h0ZM101,261.3h98.3l-14.2-23.3c-1.9.9-3.9,1.3-6.2,1.3-8.5,0-12.6-6.2-16.2-11.7-3.8-5.7-6.4-9.1-11.5-9.1s-7.7,3.4-11.5,9.1c-3.6,5.5-7.8,11.7-16.2,11.7s-5.4-.7-7.8-2.2l-14.8,24.2h0Z"/>
      </g>
      <g>
        <path class="st0" d="M287.5,221.4c-.5,0-1-.1-1.5-.4l-55.5-33.9c-1.3-.8-2.1-2.2-2.1-3.7s.8-2.9,2.1-3.7l56.7-34.6c1.3-.8,2.9-.5,3.8.7,2,2.6,2.9,5.5,2.9,8.8,0,8.5-6.2,12.6-11.7,16.2-5.7,3.8-9.1,6.4-9.1,11.5s3.4,7.7,9.1,11.5c5.5,3.6,11.7,7.8,11.7,16.2s-1.4,7.5-4.4,10.5-1.3.9-2.1.9h.1ZM235.4,183.4l51.5,31.4c.9-1.5,1.4-3,1.4-4.8,0-5-3.4-7.7-9.1-11.5-5.5-3.6-11.7-7.8-11.7-16.2s6.2-12.6,11.7-16.2c5.7-3.8,9.1-6.4,9.1-11.5s-.2-2.2-.5-3.1l-52.3,31.9h0Z"/>
        <path class="st0" d="M230.1,239.2c-.7,0-1.5-.2-2.1-.6l-29.4-18c-.7-.5-1.2-1.2-1.4-2.1-.1-.9.2-1.7.8-2.4,1.9-2,2.8-4.1,2.8-6.6,0-5-3.4-7.7-9.1-11.5-5.5-3.6-11.7-7.8-11.7-16.2s6.2-12.6,11.7-16.2c5.7-3.8,9.1-6.4,9.1-11.5s-.6-3.8-1.8-5.4c-.5-.6-.7-1.5-.5-2.3s.6-1.5,1.3-1.9l28.2-17.2c1.3-.8,2.9-.8,4.1,0,1.3.7,2.1,2.1,2.1,3.6v104.1c0,1.5-.8,2.9-2.1,3.6-.6.4-1.3.5-2,.5h0ZM204.2,217.4l24.2,14.8v-98.3l-23.3,14.2c.9,1.9,1.3,3.9,1.3,6.2,0,8.5-6.2,12.6-11.7,16.2-5.7,3.8-9.1,6.4-9.1,11.5s3.4,7.7,9.1,11.5c5.5,3.6,11.7,7.8,11.7,16.2s-.7,5.4-2.2,7.8h0Z"/>
      </g>
      <g>
        <path class="st0" d="M150.6,104.8c-1.5,0-2.9-.8-3.7-2.1l-34.6-56.7c-.8-1.3-.5-2.9.7-3.8,2.6-2,5.5-2.9,8.8-2.9,8.5,0,12.6,6.2,16.2,11.7,3.8,5.7,6.4,9.1,11.5,9.1s7.7-3.4,11.5-9.1c3.6-5.5,7.8-11.7,16.2-11.7s7.5,1.4,10.5,4.4c1,.9,1.2,2.4.5,3.6l-33.9,55.5c-.8,1.3-2.2,2.1-3.7,2.1h0ZM118.6,45.5l31.9,52.3,31.4-51.5c-1.5-.9-3-1.4-4.8-1.4-5,0-7.7,3.4-11.5,9.1-3.6,5.5-7.8,11.7-16.2,11.7s-12.6-6.2-16.2-11.7c-3.8-5.7-6.4-9.1-11.5-9.1s-2.2.2-3.1.5h0Z"/>
        <path class="st0" d="M149.1,153.4c-8.5,0-12.6-6.2-16.2-11.7-3.8-5.7-6.4-9.1-11.5-9.1s-3.8.6-5.4,1.8c-.6.5-1.5.7-2.3.5s-1.5-.6-1.9-1.3l-17.2-28.2c-.8-1.3-.8-2.9,0-4.1.7-1.3,2.1-2.1,3.6-2.1h104.1c1.5,0,2.9.8,3.6,2.1.7,1.3.7,2.9,0,4.1l-18,29.4c-.5.7-1.2,1.2-2.1,1.4-.9.1-1.7-.2-2.4-.8-2-1.9-4.1-2.8-6.6-2.8-5,0-7.7,3.4-11.5,9.1-3.6,5.5-7.8,11.7-16.2,11.7h0ZM121.4,126.8c8.5,0,12.6,6.2,16.2,11.7,3.8,5.7,6.4,9.1,11.5,9.1s7.7-3.4,11.5-9.1c3.6-5.5,7.8-11.7,16.2-11.7s5.4.7,7.8,2.2l14.8-24.2h-98.3l14.2,23.3c1.9-.9,3.9-1.3,6.2-1.3h0Z"/>
      </g>
      <path class="st0" d="M150.2,198.8c-8.7,0-15.8-7.1-15.8-15.8s7.1-15.8,15.8-15.8,15.8,7.1,15.8,15.8-7.1,15.8-15.8,15.8ZM150.2,173c-5.5,0-10,4.5-10,10s4.5,10,10,10,10-4.5,10-10-4.5-10-10-10Z"/>
    </g>
    <g>
      <path class="st0" d="M207,132.6c-.7,0-1.5-.3-2-.8-1.1-1.1-1.1-2.9,0-4.1l39.9-39.9c1.1-1.1,2.9-1.1,4.1,0,1.1,1.1,1.1,2.9,0,4.1l-39.9,39.9c-.6.6-1.3.8-2,.8h-.1Z"/>
      <path class="st0" d="M96.9,129.1c-.7,0-1.5-.3-2-.8l-39.9-39.9c-1.1-1.1-1.1-2.9,0-4.1,1.1-1.1,2.9-1.1,4.1,0l39.9,39.9c1.1,1.1,1.1,2.9,0,4.1s-1.3.8-2,.8h0Z"/>
      <path class="st0" d="M53.5,279.1c-.7,0-1.5-.3-2-.8-1.1-1.1-1.1-2.9,0-4.1l39.9-39.9c1.1-1.1,2.9-1.1,4.1,0,1.1,1.1,1.1,2.9,0,4.1l-39.9,39.9c-.6.6-1.3.8-2,.8h0Z"/>
      <path class="st0" d="M243.4,282.6c-.7,0-1.5-.3-2-.8l-39.9-39.9c-1.1-1.1-1.1-2.9,0-4.1,1.1-1.1,2.9-1.1,4.1,0l39.9,39.9c1.1,1.1,1.1,2.9,0,4.1s-1.3.8-2,.8h-.1Z"/>
    </g>
  </g>
</svg>